# File created by Blade
# Date/Time:  Thu Jan 22 19:34:22 2015
#---------------------------------------------------------
:version 1.10
:name HOM
:units
  mass 1.0
  length 1.000000
  angle deg
:documentation
     Acclaim Skeleton File
:root
   axis xyz
   order TX TY TZ RX RY RZ
   position 0.000000 0.000000 0.000000
   orientation 0 0 0
:bonedata
   begin
      id 1
      name RightUpLeg_dum
      direction -1.000000 0.000000 0.000000
      length 4.478084
      axis 0.0 0.0 0.0 xyz
   end
   begin
      id 2
      name LeftUpLeg_dum
      direction 1.000000 0.000000 0.000000
      length 4.478084
      axis 0.0 0.0 0.0 xyz
   end
   begin
      id 3
      name Spine_dum
      direction 0.000000 1.000000 0.000000
      length 6.068208
      axis 0.0 0.0 0.0 xyz
   end
   begin
      id 4
      name RightUpLeg
      direction 0.000000 -1.000000 0.000000
      length 16.405774
      axis 0.0 0.0 0.0 xyz
      dof rx ry rz
   end
   begin
      id 5
      name RightLeg
      direction 0.000000 -1.000000 0.000000
      length 14.644143
      axis 0.0 0.0 0.0 xyz
      dof rx ry rz
   end
   begin
      id 6
      name RightFoot
      direction 0.000000 -0.258819 0.965926
      length 5.806150
      axis 15.0 0.0 0.0 xyz
      dof rx ry rz
   end
   begin
      id 7
      name RightToeBase
      direction 0.000000 0.000000 1.000000
      length 2.952750
      axis 0.0 0.0 0.0 xyz
      dof rx ry rz
   end
   begin
      id 8
      name LeftUpLeg
      direction 0.000000 -1.000000 0.000000
      length 16.405774
      axis 0.0 0.0 0.0 xyz
      dof rx ry rz
   end
   begin
      id 9
      name LeftLeg
      direction 0.000000 -1.000000 0.000000
      length 14.644143
      axis 0.0 0.0 0.0 xyz
      dof rx ry rz
   end
   begin
      id 10
      name LeftFoot
      direction 0.000000 -0.258819 0.965926
      length 5.806150
      axis 15.0 0.0 0.0 xyz
      dof rx ry rz
   end
   begin
      id 11
      name LeftToeBase
      direction 0.000000 0.000000 1.000000
      length 2.952750
      axis 0.0 0.0 0.0 xyz
      dof rx ry rz
   end
   begin
      id 12
      name Spine
      direction 0.000000 1.000000 0.000000
      length 0.000000
      axis 0.0 0.0 0.0 xyz
      dof rx ry rz
   end
   begin
      id 13
      name Spine_dum1
      direction 0.000000 1.000000 0.000000
      length 10.013923
      axis 0.0 0.0 0.0 xyz
   end
   begin
      id 14
      name Spine_dum2
      direction 0.000000 1.000000 0.000000
      length 10.013923
      axis 0.0 0.0 0.0 xyz
   end
   begin
      id 15
      name Spine_dum3
      direction 0.000000 1.000000 0.000000
      length 15.777476
      axis 0.0 0.0 0.0 xyz
   end
   begin
      id 16
      name RightShoulder
      direction -1.000000 0.000000 0.000000
      length 7.190220
      axis 0.0 0.0 90.0 xyz
      dof rx ry rz
   end
   begin
      id 17
      name RightArm
      direction -1.000000 0.000000 0.000000
      length 10.177469
      axis 0.0 0.0 90.0 xyz
      dof rx ry rz
   end
   begin
      id 18
      name RightForeArm
      direction -1.000000 0.000000 0.000000
      length 8.392114
      axis 0.0 0.0 90.0 xyz
      dof ry rz rx
   end
   begin
      id 19
      name RightHand
      direction -1.000000 0.000000 0.000000
      length 0.000000
      axis 0.0 0.0 90.0 xyz
      dof rx ry rz
   end
   begin
      id 20
      name RightHand_dum1
      direction -1.000000 0.000000 0.000000
      length 3.937000
      axis 0.0 0.0 90.0 xyz
   end
   begin
      id 21
      name RightHand_dum2
      direction 0.000000 0.000000 0.000000
      length 0.000000
      axis 0.0 0.0 90.0 xyz
   end
   begin
      id 22
      name RightHandThumb1
      direction 0.000000 0.000000 1.000000
      length 3.937000
      axis 0.0 0.0 90.0 xyz
      dof rx rz ry
   end
   begin
      id 23
      name LeftShoulder
      direction 1.000000 0.000000 0.000000
      length 7.190220
      axis 0.0 0.0 -90.0 xyz
      dof rx ry rz
   end
   begin
      id 24
      name LeftArm
      direction 1.000000 0.000000 0.000000
      length 10.177469
      axis 0.0 0.0 -90.0 xyz
      dof rx ry rz
   end
   begin
      id 25
      name LeftForeArm
      direction 1.000000 0.000000 0.000000
      length 8.392114
      axis 0.0 0.0 -90.0 xyz
      dof ry rz rx
   end
   begin
      id 26
      name LeftHand
      direction 1.000000 0.000000 0.000000
      length 0.000000
      axis 0.0 0.0 -90.0 xyz
      dof rx ry rz
   end
   begin
      id 27
      name LeftHand_dum1
      direction 1.000000 0.000000 0.000000
      length 3.937000
      axis 0.0 0.0 -90.0 xyz
   end
   begin
      id 28
      name LeftHand_dum2
      direction 0.000000 0.000000 0.000000
      length 0.000000
      axis 0.0 0.0 -90.0 xyz
   end
   begin
      id 29
      name LeftHandThumb1
      direction 0.000000 0.000000 1.000000
      length 3.937000
      axis 0.0 0.0 -90.0 xyz
      dof rx rz ry
   end
   begin
      id 30
      name Head
      direction 0.000000 1.000000 0.000000
      length 4.527550
      axis 0.0 0.0 0.0 xyz
      dof rx ry rz
   end
:hierarchy
   begin
      root RightUpLeg_dum LeftUpLeg_dum Spine_dum
      RightUpLeg_dum RightUpLeg
      LeftUpLeg_dum LeftUpLeg
      Spine_dum Spine
      RightUpLeg RightLeg
      RightLeg RightFoot
      RightFoot RightToeBase
      LeftUpLeg LeftLeg
      LeftLeg LeftFoot
      LeftFoot LeftToeBase
      Spine Spine_dum1 Spine_dum2 Spine_dum3
      Spine_dum1 RightShoulder
      Spine_dum2 LeftShoulder
      Spine_dum3 Head
      RightShoulder RightArm
      RightArm RightForeArm
      RightForeArm RightHand
      RightHand RightHand_dum1 RightHand_dum2
      RightHand_dum2 RightHandThumb1
      LeftShoulder LeftArm
      LeftArm LeftForeArm
      LeftForeArm LeftHand
      LeftHand LeftHand_dum1 LeftHand_dum2
      LeftHand_dum2 LeftHandThumb1
   end

# File created by Blade
# Date/Time:  Thu Jan 22 19:34:15 2015
# Frame Rate: 120.000 fps
#------------------------------------------------------
:FULLY-SPECIFIED
:DEGREES
104
root -3.260751 33.012329 -1.526947 9.348199 -2.178189 2.527073
RightUpLeg -2.466052 -3.923750 -3.382256
RightLeg -1.050679 -0.000000 0.000000
RightFoot -12.115936 -3.547181 4.729890
RightToeBase 7.378017 -0.000000 -0.000000
LeftUpLeg -2.093228 2.649695 2.133849
LeftLeg 0.916205 -0.000000 -0.000000
LeftFoot -11.986986 3.299755 -18.256221
LeftToeBase 8.642098 -0.000000 -0.000000
Spine -10.236433 -2.184222 -1.349563
RightShoulder -20.166177 -12.640641 -24.390333
RightArm 20.564274 26.819943 41.324393
RightForeArm -12.267042 -0.000000 14.310415
RightHand 9.176948 0.000000 7.806891
RightHandThumb1 -24.326973 -0.000000 -32.862282
LeftShoulder -24.667510 6.793493 29.714265
LeftArm 16.215536 -25.791067 -37.552730
LeftForeArm 20.931692 -0.000000 1.975616
LeftHand 0.594918 -0.000000 -11.076744
LeftHandThumb1 -26.253704 0.000000 33.147579
Head -2.975378 6.270037 1.487287
105
root -3.260554 33.012290 -1.526599 9.353437 -2.163186 2.529478
RightUpLeg -2.459080 -3.949892 -3.382333
RightLeg -1.069280 -0.000000 0.000000
RightFoot -12.108244 -3.539521 4.720628
RightToeBase 7.348901 -0.000000 -0.000000
LeftUpLeg -2.098896 2.650702 2.132745
LeftLeg 0.910155 -0.000000 -0.000000
LeftFoot -11.980257 3.295031 -18.247629
LeftToeBase 8.661796 -0.000000 -0.000000
Spine -10.237715 -2.181290 -1.343045
RightShoulder -20.178118 -12.657009 -24.392046
RightArm 20.572386 26.820692 41.325078
RightForeArm -12.260810 -0.000000 14.298931
RightHand 9.172687 0.000000 7.882509
RightHandThumb1 -24.326973 -0.000000 -32.862282
LeftShoulder -24.657982 6.800307 29.711600
LeftArm 16.224206 -25.808660 -37.563385
LeftForeArm 20.947464 -0.000000 1.968332
LeftHand 0.612912 -0.000000 -11.102778
LeftHandThumb1 -26.253704 0.000000 33.147579
Head -2.984722 6.274952 1.467764
106
root -3.260415 33.012252 -1.526048 9.357078 -2.154186 2.533057
RightUpLeg -2.453801 -3.962401 -3.385063
RightLeg -1.082029 -0.000000 0.000000
RightFoot -12.098897 -3.536100 4.719875
RightToeBase 7.379210 -0.000000 -0.000000
LeftUpLeg -2.102157 2.655159 2.128877
LeftLeg 0.907906 -0.000000 -0.000000
LeftFoot -11.973297 3.286776 -18.238637
LeftToeBase 8.657060 -0.000000 -0.000000
Spine -10.239954 -2.191529 -1.335896
RightShoulder -20.171042 -12.669272 -24.394892
RightArm 20.583830 26.828167 41.328629
RightForeArm -12.251786 -0.000000 14.285465
RightHand 9.172380 -0.000000 7.896843
RightHandThumb1 -24.326973 -0.000000 -32.862282
LeftShoulder -24.666202 6.809791 29.712210
LeftArm 16.237488 -25.817850 -37.580336
LeftForeArm 20.961623 0.000000 1.951539
LeftHand 0.604677 -0.000000 -11.068100
LeftHandThumb1 -26.253704 0.000000 33.147579
Head -2.987923 6.289789 1.446039
107
root -3.259292 33.011799 -1.526690 9.361882 -2.151309 2.531398
RightUpLeg -2.461873 -3.968842 -3.383504
RightLeg -1.077248 -0.000000 0.000000
RightFoot -12.104120 -3.533209 4.722870
RightToeBase 7.359950 -0.000000 -0.000000
LeftUpLeg -2.104927 2.658593 2.120164
LeftLeg 0.893829 -0.000000 -0.000000
LeftFoot -11.982561 3.280720 -18.365313
LeftToeBase 8.665371 -0.000000 -0.000000
Spine -10.236669 -2.182369 -1.320573
RightShoulder -20.174184 -12.669919 -24.405907
RightArm 20.585226 26.832154 41.327823
RightForeArm -12.273116 -0.000000 14.271631
RightHand 9.168140 -0.000000 7.884136
RightHandThumb1 -24.326973 -0.000000 -32.862282
LeftShoulder -24.667574 6.803049 29.710984
LeftArm 16.236793 -25.810180 -37.589366
LeftForeArm 20.962264 -0.000000 1.947649
LeftHand 0.596738 -0.000000 -11.052951
LeftHandThumb1 -26.253704 0.000000 33.147579
Head -3.005031 6.310032 1.426615
108
root -3.260241 33.012378 -1.525155 9.366576 -2.144743 2.536310
RightUpLeg -2.453645 -3.973394 -3.386002
RightLeg -1.094658 -0.000000 0.000000
RightFoot -12.098894 -3.533272 4.733658
RightToeBase 7.360564 -0.000000 -0.000000
LeftUpLeg -2.103676 2.671726 2.124188
LeftLeg 0.887347 -0.000000 -0.000000
LeftFoot -11.956517 3.276391 -18.220304
LeftToeBase 8.669951 -0.000000 -0.000000
Spine -10.240453 -2.190408 -1.321506
RightShoulder -20.170443 -12.675831 -24.403253
RightArm 20.585316 26.842129 41.333991
RightForeArm -12.272924 -0.000000 14.275103
RightHand 9.130887 -0.000000 7.943630
RightHandThumb1 -24.326973 -0.000000 -32.862282
LeftShoulder -24.670142 6.790825 29.721766
LeftArm 16.211948 -25.811049 -37.589430
LeftForeArm 20.966458 -0.000000 1.963918
LeftHand 0.594836 -0.000000 -11.038357
LeftHandThumb1 -26.253704 0.000000 33.147579
Head -3.013572 6.324180 1.418807
109
root -3.258685 33.012272 -1.525117 9.374262 -2.141036 2.541306
RightUpLeg -2.458157 -3.971372 -3.393061
RightLeg -1.100081 -0.000000 0.000000
RightFoot -12.100239 -3.541258 4.736939
RightToeBase 7.370876 -0.000000 -0.000000
LeftUpLeg -2.106665 2.641697 2.116555
LeftLeg 0.885486 -0.000000 -0.000000
LeftFoot -11.947787 3.271809 -18.294538
LeftToeBase 8.569175 -0.000000 -0.000000
Spine -10.246735 -2.185795 -1.308910
RightShoulder -20.168064 -12.684080 -24.421727
RightArm 20.587289 26.847511 41.352160
RightForeArm -12.390660 -0.000000 14.266009
RightHand 9.185644 -0.000000 7.746689
RightHandThumb1 -24.326973 -0.000000 -32.862282
LeftShoulder -24.672071 6.802773 29.699099
LeftArm 16.224575 -25.813842 -37.589699
LeftForeArm 20.937319 -0.000000 1.957290
LeftHand 0.606177 0.000000 -11.007398
LeftHandThumb1 -26.253704 0.000000 33.147579
Head -3.015164 6.353512 1.395322
110
root -3.259518 33.012070 -1.523812 9.376139 -2.126032 2.542011
RightUpLeg -2.449023 -3.987151 -3.388907
RightLeg -1.111807 -0.000000 0.000000
RightFoot -12.097106 -3.547066 4.723002
RightToeBase 7.379937 -0.000000 -0.000000
LeftUpLeg -2.106910 2.635404 2.121409
LeftLeg 0.883643 -0.000000 -0.000000
LeftFoot -11.942744 3.249367 -18.305425
LeftToeBase 8.594163 -0.000000 -0.000000
Spine -10.247802 -2.195940 -1.304511
RightShoulder -20.161210 -12.678645 -24.412666
RightArm 20.567046 26.846458 41.318548
RightForeArm -12.333468 -0.000000 14.277339
RightHand 9.137890 -0.000000 7.724336
RightHandThumb1 -24.326973 -0.000000 -32.862282
LeftShoulder -24.668121 6.782470 29.714156
LeftArm 16.200739 -25.821441 -37.592440
LeftForeArm 20.953957 -0.000000 1.963089
LeftHand 0.601229 -0.000000 -11.014962
LeftHandThumb1 -26.253704 0.000000 33.147579
Head -3.021546 6.364418 1.392214
111
root -3.258739 33.011913 -1.524185 9.382386 -2.128656 2.548033
RightUpLeg -2.456996 -3.983791 -3.397086
RightLeg -1.109527 -0.000000 0.000000
RightFoot -12.097220 -3.547987 4.725434
RightToeBase 7.342235 -0.000000 -0.000000
LeftUpLeg -2.112732 2.638341 2.114422
LeftLeg 0.871919 -0.000000 -0.000000
LeftFoot -11.942937 3.280608 -18.228255
LeftToeBase 8.638258 -0.000000 -0.000000
Spine -10.248324 -2.184253 -1.306309
RightShoulder -20.173142 -12.687621 -24.417639
RightArm 20.574818 26.866526 41.352480
RightForeArm -12.448653 -0.000000 14.281675
RightHand 9.213036 0.000000 7.645150
RightHandThumb1 -24.326973 -0.000000 -32.862282
LeftShoulder -24.674908 6.792786 29.711097
LeftArm 16.215269 -25.823425 -37.608990
LeftForeArm 20.932929 -0.000000 1.971152
LeftHand 0.605486 -0.000000 -10.982771
LeftHandThumb1 -26.253704 0.000000 33.147579
Head -3.025736 6.371062 1.384251
112
root -3.258095 33.011690 -1.523456 9.385016 -2.119361 2.552035
RightUpLeg -2.453803 -3.976377 -3.400698
RightLeg -1.115593 -0.000000 0.000000
RightFoot -12.106945 -3.568225 4.734440
RightToeBase 7.368997 -0.000000 -0.000000
LeftUpLeg -2.113759 2.626926 2.108907
LeftLeg 0.874341 -0.000000 -0.000000
LeftFoot -11.935234 3.264947 -18.292396
LeftToeBase 8.562300 -0.000000 -0.000000
Spine -10.248887 -2.182718 -1.297402
RightShoulder -20.170403 -12.686039 -24.416274
RightArm 20.561733 26.884603 41.328106
RightForeArm -12.393929 -0.000000 14.298329
RightHand 9.188023 -0.000000 7.596185
RightHandThumb1 -24.326973 -0.000000 -32.862282
LeftShoulder -24.669097 6.787631 29.706950
LeftArm 16.200360 -25.824162 -37.610245
LeftForeArm 20.926560 -0.000000 1.985218
LeftHand 0.601085 -0.000000 -10.977430
LeftHandThumb1 -26.253704 0.000000 33.147579
Head -3.030539 6.375515 1.365239
113
root -3.258443 33.011969 -1.522508 9.388464 -2.110286 2.553579
RightUpLeg -2.450568 -3.986362 -3.400172
RightLeg -1.121502 -0.000000 0.000000
RightFoot -12.103762 -3.574504 4.708953
RightToeBase 7.371981 -0.000000 -0.000000
LeftUpLeg -2.117584 2.611336 2.110116
LeftLeg 0.876182 -0.000000 -0.000000
LeftFoot -11.932918 3.262624 -18.298579
LeftToeBase 8.556355 -0.000000 -0.000000
Spine -10.253239 -2.185459 -1.290690
RightShoulder -20.165788 -12.689723 -24.403481
RightArm 20.558178 26.878645 41.305817
RightForeArm -12.503236 -0.000000 14.265634
RightHand 9.518775 -0.000000 7.400227
RightHandThumb1 -24.326973 -0.000000 -32.862282
LeftShoulder -24.664661 6.798043 29.699274
LeftArm 16.199619 -25.841159 -37.616267
LeftForeArm 20.935883 -0.000000 1.995864
LeftHand 0.615011 0.000000 -10.964439
LeftHandThumb1 -26.253704 0.000000 33.147579
Head -3.029531 6.381274 1.356353
114
root -3.257572 33.011668 -1.522182 9.394060 -2.102040 2.557902
RightUpLeg -2.452296 -3.981727 -3.404596
RightLeg -1.126269 -0.000000 0.000000
RightFoot -12.104126 -3.579561 4.727428
RightToeBase 7.334280 -0.000000 -0.000000
LeftUpLeg -2.123528 2.607373 2.106630
LeftLeg 0.865715 -0.000000 -0.000000
LeftFoot -11.937094 3.280524 -18.245059
LeftToeBase 8.621609 -0.000000 -0.000000
Spine -10.257140 -2.191033 -1.285554
RightShoulder -20.159233 -12.686577 -24.414073
RightArm 20.547506 26.876764 41.299825
RightForeArm -12.350231 -0.000000 14.277014
RightHand 9.374071 0.000000 7.767311
RightHandThumb1 -24.326973 -0.000000 -32.862282
LeftShoulder -24.665805 6.786736 29.702857
LeftArm 16.179901 -25.807347 -37.607066
LeftForeArm 20.918259 0.000000 2.008576
LeftHand 0.604011 -0.000000 -10.973970
LeftHandThumb1 -26.253704 0.000000 33.147579
Head -3.026436 6.382245 1.344634
115
root -3.257628 33.011223 -1.521210 9.393760 -2.095030 2.550911
RightUpLeg -2.445300 -3.988540 -3.396678
RightLeg -1.131957 -0.000000 0.000000
RightFoot -12.105264 -3.587218 4.712269
RightToeBase 7.370649 -0.000000 -0.000000
LeftUpLeg -2.122897 2.641093 2.105657
LeftLeg 0.859416 -0.000000 -0.000000
LeftFoot -11.946840 3.247121 -18.349210
LeftToeBase 8.663936 -0.000000 -0.000000
Spine -10.255538 -2.185734 -1.266534
RightShoulder -20.159831 -12.691865 -24.421106
RightArm 20.541887 26.869702 41.295723
RightForeArm -12.447546 -0.000000 14.265757
RightHand 9.492764 -0.000000 7.446378
RightHandThumb1 -24.326973 -0.000000 -32.862282
LeftShoulder -24.655444 6.786410 29.698317
LeftArm 16.163210 -25.808906 -37.608857
LeftForeArm 20.934138 -0.000000 2.027946
LeftHand 0.604369 -0.000000 -10.984207
LeftHandThumb1 -26.253704 0.000000 33.147579
Head -3.024618 6.389141 1.329925
